<?xml version="1.0" standalone="no"?>
<!DOCTYPE svg PUBLIC "-//W3C//DTD SVG 20010904//EN"
 "http://www.w3.org/TR/2001/REC-SVG-20010904/DTD/svg10.dtd">
<svg version="1.0" xmlns="http://www.w3.org/2000/svg"
 width="145.000000pt" height="146.000000pt" viewBox="0 0 145.000000 146.000000"
 preserveAspectRatio="xMidYMid meet">

<g transform="translate(0.000000,146.000000) scale(0.100000,-0.100000)"
fill="#000000" stroke="none">
<path d="M571 1435 c-35 -8 -107 -35 -159 -61 -82 -40 -110 -60 -187 -138
-135 -135 -200 -276 -212 -458 -24 -352 204 -666 547 -755 92 -23 252 -21 353
6 419 111 647 577 481 984 -85 210 -283 376 -503 423 -83 17 -236 17 -320 -1z
m336 -20 c242 -56 440 -254 504 -503 26 -103 26 -253 -1 -357 -53 -208 -183
-367 -376 -461 -469 -229 -1003 108 -1004 632 0 292 171 549 438 658 56 22 90
31 202 50 40 7 169 -4 237 -19z"/>
<path d="M687 1382 c-33 -36 -13 -92 31 -92 16 0 33 5 40 12 18 18 14 63 -6
81 -24 22 -45 21 -65 -1z m61 -38 c2 -22 -2 -33 -14 -38 -22 -8 -44 11 -44 39
0 28 9 37 35 33 14 -2 21 -12 23 -34z"/>
<path d="M790 1346 c0 -30 4 -57 10 -61 5 -3 18 11 29 32 l20 38 1 -30 c1 -59
16 -62 44 -7 14 28 22 53 17 56 -5 3 -15 -9 -22 -27 l-14 -32 -5 34 c-7 46
-23 49 -42 9 l-17 -33 0 32 c-2 58 -21 48 -21 -11z"/>
<path d="M593 1383 c-28 -5 -30 -23 -4 -23 15 0 21 -10 26 -40 4 -22 11 -40
17 -40 7 0 8 15 4 41 -5 33 -3 44 11 55 17 12 16 13 -7 12 -14 0 -35 -3 -47
-5z"/>
<path d="M921 1323 c-8 -21 -16 -44 -18 -50 -3 -7 -1 -13 5 -13 6 0 16 15 22
33 l13 32 9 -42 c11 -52 24 -54 44 -7 21 49 13 81 -8 34 l-16 -35 -7 43 c-9
52 -27 54 -44 5z"/>
<path d="M462 1338 c-16 -16 -16 -48 1 -49 6 -1 25 0 41 1 20 1 27 -2 24 -12
-3 -7 -17 -13 -31 -13 -28 1 -35 -9 -16 -20 16 -11 56 3 63 21 10 26 -14 47
-46 40 -21 -4 -28 -2 -28 10 0 12 7 15 25 11 16 -3 24 0 22 7 -5 16 -40 19
-55 4z"/>
<path d="M377 1294 c-26 -14 -26 -16 -13 -42 8 -15 21 -36 29 -46 14 -19 15
-19 45 0 18 10 32 22 32 26 0 12 -8 10 -34 -8 -19 -12 -26 -12 -32 -3 -4 8 1
18 14 27 12 8 22 19 22 24 0 5 -10 2 -22 -6 -42 -30 -55 -8 -15 25 26 22 13
24 -26 3z"/>
<path d="M1060 1270 c-22 -22 -26 -60 -8 -78 15 -15 58 -16 58 -1 0 6 -8 8
-19 4 -29 -9 -45 25 -25 53 19 27 44 28 51 2 6 -23 23 -27 23 -6 0 14 -36 46
-52 46 -5 0 -17 -9 -28 -20z"/>
<path d="M320 1255 c0 -3 7 -22 15 -42 8 -19 15 -37 15 -39 0 -2 -16 6 -35 17
-19 12 -40 19 -47 17 -6 -2 9 -16 35 -31 47 -28 67 -33 67 -19 0 20 -33 102
-41 102 -5 0 -9 -2 -9 -5z"/>
<path d="M590 1234 c-105 -28 -213 -102 -281 -192 -171 -226 -152 -527 47
-726 211 -212 542 -209 756 7 113 115 166 258 154 422 -9 136 -54 240 -145
337 -109 116 -232 169 -391 167 -47 0 -110 -7 -140 -15z m140 -219 l0 -165
-37 -1 c-21 0 -83 -1 -138 -2 l-100 -2 -7 48 c-3 27 -19 73 -33 103 l-27 54
24 20 c12 11 45 34 72 52 40 26 51 30 67 20 24 -16 39 -15 58 2 20 17 68 34
99 35 22 1 22 1 22 -164z m160 -35 c0 -5 -5 -10 -11 -10 -5 0 -7 5 -4 10 3 6
8 10 11 10 2 0 4 -4 4 -10z m133 -208 c10 -107 -14 -167 -83 -202 -21 -11 -59
-20 -82 -20 -24 0 -60 -9 -81 -19 l-37 -19 0 164 0 164 139 0 138 0 6 -68z
m-418 -82 c-3 -5 -10 -10 -16 -10 -5 0 -9 5 -9 10 0 6 7 10 16 10 8 0 12 -4 9
-10z m606 -87 c0 -5 2 -16 4 -25 2 -10 0 -18 -5 -18 -5 0 -7 -8 -6 -17 4 -23
-25 -62 -41 -56 -7 3 -10 -3 -7 -14 2 -10 -9 -33 -26 -53 -22 -25 -30 -30 -30
-17 0 10 -4 15 -10 12 -16 -10 -12 22 5 38 8 8 11 17 8 21 -4 3 5 6 18 7 13 0
18 3 11 6 -36 14 -180 -46 -273 -113 -26 -19 -51 -34 -57 -34 -14 0 -61 75
-54 87 29 42 194 136 297 169 44 14 165 19 166 7z m-724 -37 c70 -19 155 -59
198 -93 19 -15 35 -31 35 -34 0 -3 -9 -16 -20 -29 -11 -13 -20 -28 -20 -33 0
-6 -3 -8 -6 -4 -3 3 -15 -4 -26 -15 l-20 -20 -31 30 c-45 43 -137 81 -229 95
-63 9 -81 9 -87 -2 -6 -9 -11 -4 -18 16 -15 41 -16 95 -1 105 17 12 159 2 225
-16z m-129 -126 c33 -21 43 -34 17 -24 -8 4 -15 2 -15 -4 0 -5 7 -12 15 -16 8
-3 15 -9 15 -14 0 -5 -22 2 -50 15 -35 17 -50 30 -50 43 0 26 26 26 68 0z
m336 -124 c10 -1 41 1 68 5 56 9 91 -2 105 -35 24 -54 -8 -74 -132 -83 -86 -6
-159 8 -168 31 -3 8 8 32 24 55 25 34 34 39 57 35 15 -3 35 -6 46 -8z"/>
<path d="M475 1078 c4 -13 15 -30 26 -40 23 -20 23 -25 3 -63 -14 -27 -13 -31
4 -55 12 -16 31 -26 53 -28 19 -2 39 -8 46 -14 15 -12 65 23 84 59 12 22 11
27 -3 37 -16 12 -15 14 5 35 15 16 18 25 10 28 -7 3 -13 18 -13 35 0 30 -1 30
-19 14 -29 -26 -129 -29 -160 -5 -32 25 -44 24 -36 -3z m130 -88 c3 -5 -1 -10
-10 -10 -9 0 -13 5 -10 10 3 6 8 10 10 10 2 0 7 -4 10 -10z"/>
<path d="M760 803 c0 -12 11 -35 24 -51 23 -26 24 -31 10 -56 -7 -16 -14 -34
-14 -40 0 -23 49 -56 83 -56 18 0 38 -5 43 -10 8 -8 22 1 47 30 41 45 44 52
22 70 -13 10 -12 15 8 31 19 17 20 21 7 31 -9 8 -14 25 -12 41 4 32 -8 35 -26
6 -8 -13 -20 -19 -32 -16 -10 2 -38 1 -62 -3 -38 -8 -46 -6 -70 18 -27 25 -28
25 -28 5z m125 -113 c-3 -5 -11 -10 -16 -10 -6 0 -7 5 -4 10 3 6 11 10 16 10
6 0 7 -4 4 -10z"/>
<path d="M1137 593 c-4 -3 -7 -24 -7 -45 0 -35 2 -38 28 -37 23 2 24 2 5 6
-27 5 -31 30 -5 36 16 4 16 5 0 6 -25 1 -22 20 5 31 21 8 21 9 1 9 -11 1 -24
-2 -27 -6z"/>
<path d="M1054 577 c-3 -8 -1 -30 4 -48 8 -26 10 -28 11 -11 1 27 8 28 34 5
12 -11 17 -12 12 -4 -4 8 -8 26 -9 40 -1 19 -7 27 -24 29 -12 2 -24 -3 -28
-11z m46 -12 c0 -8 -9 -15 -20 -15 -11 0 -20 7 -20 15 0 8 9 15 20 15 11 0 20
-7 20 -15z"/>
<path d="M979 551 c-7 -10 -19 -16 -28 -14 -9 2 -24 -2 -33 -9 -16 -12 -16
-15 2 -48 16 -30 19 -32 20 -12 0 12 5 22 10 22 6 0 15 10 20 23 6 16 9 18 9
5 1 -24 34 -41 49 -26 25 25 7 78 -25 78 -7 0 -18 -8 -24 -19z m49 -24 c2 -19
-1 -27 -12 -27 -18 0 -35 29 -29 48 9 23 38 8 41 -21z m-68 -7 c0 -12 -28 -25
-36 -17 -9 9 6 27 22 27 8 0 14 -5 14 -10z"/>
<path d="M850 485 c-22 -26 12 -81 43 -69 24 9 29 34 12 60 -18 27 -37 31 -55
9z m37 -3 c6 -4 13 -16 15 -27 5 -29 -38 -34 -47 -6 -10 33 6 50 32 33z"/>
<path d="M793 453 c-7 -2 -13 -13 -13 -23 0 -15 7 -18 34 -17 19 1 32 6 29 10
-3 5 -16 6 -29 3 -28 -7 -32 8 -6 23 17 11 7 13 -15 4z"/>
<path d="M826 385 c-11 -8 -15 -15 -9 -15 6 0 16 7 23 15 16 19 11 19 -14 0z"/>
<path d="M272 568 c-14 -14 2 -38 24 -38 8 0 14 -7 14 -16 0 -11 -6 -15 -20
-11 -11 3 -20 1 -20 -4 0 -12 37 -12 45 1 4 6 13 5 24 -2 31 -19 51 -3 50 39
l-2 38 -6 -35 c-4 -22 -12 -35 -21 -35 -9 0 -17 13 -21 35 -6 35 -6 35 -8 5
-2 -16 -5 -24 -8 -17 -2 6 -13 12 -24 12 -10 0 -19 5 -19 10 0 6 7 10 15 10 8
0 15 5 15 10 0 14 -23 13 -38 -2z"/>
<path d="M415 558 c-19 -64 -4 -94 36 -70 15 9 19 8 24 -8 13 -41 65 -17 65
31 0 35 -25 44 -50 19 -20 -20 -20 -20 -20 4 0 31 -46 51 -55 24z m40 -34 c0
-19 -6 -30 -17 -32 -14 -3 -18 3 -18 26 0 16 3 32 7 36 14 13 28 -1 28 -30z
m75 -19 c0 -28 -25 -44 -42 -27 -15 15 1 52 23 52 14 0 19 -7 19 -25z"/>
<path d="M555 491 c-19 -37 -19 -42 0 -35 11 4 15 0 15 -16 0 -23 0 -22 20 3
25 32 25 53 0 67 -16 9 -22 6 -35 -19z m40 -2 c10 -15 -1 -23 -20 -15 -9 3
-13 10 -10 16 8 13 22 13 30 -1z"/>
<path d="M616 438 c-27 -35 -26 -42 7 -59 21 -12 21 -11 5 8 -24 26 -23 37 3
30 17 -5 18 -3 8 9 -17 21 -2 31 24 15 22 -14 22 -14 3 8 -11 11 -20 21 -22
21 -1 0 -14 -14 -28 -32z"/>
<path d="M620 298 c0 -10 4 -18 10 -18 5 0 12 -11 16 -25 7 -29 24 -33 24 -6
0 11 3 28 6 38 3 10 -2 7 -10 -7 -8 -14 -15 -20 -16 -14 0 5 -7 19 -15 30 -13
17 -14 17 -15 2z"/>
<path d="M690 281 c-15 -29 4 -63 33 -59 18 2 22 10 22 38 0 28 -4 36 -22 38
-14 2 -26 -4 -33 -17z m48 -18 c-3 -31 -32 -43 -41 -18 -9 23 3 45 25 45 15 0
19 -6 16 -27z"/>
<path d="M761 288 c1 -7 5 -24 9 -38 8 -25 8 -25 9 4 l1 29 25 -23 c25 -23 25
-23 25 -2 0 14 -5 20 -13 16 -8 -3 -20 2 -27 11 -15 18 -30 20 -29 3z"/>
<path d="M612 250 c0 -14 2 -19 5 -12 2 6 2 18 0 25 -3 6 -5 1 -5 -13z"/>
<path d="M1142 1204 c-27 -19 -27 -71 -1 -87 53 -33 111 52 61 91 -21 16 -33
15 -60 -4z m57 -18 c18 -21 -3 -56 -33 -56 -30 0 -39 22 -20 49 18 24 37 27
53 7z"/>
<path d="M240 1182 c0 -14 69 -76 77 -68 4 4 -9 23 -29 42 -37 34 -48 40 -48
26z"/>
<path d="M1211 1110 c-31 -29 -32 -32 -18 -53 20 -31 50 -32 83 -3 35 30 27
44 -9 16 -57 -45 -86 -7 -29 39 22 18 31 30 22 31 -9 0 -30 -14 -49 -30z"/>
<path d="M170 1095 c-12 -20 -19 -39 -15 -43 4 -4 10 -1 12 6 7 17 24 15 53
-8 14 -11 28 -20 33 -20 17 0 5 17 -28 39 -26 18 -33 27 -25 36 7 8 7 15 1 19
-5 3 -19 -10 -31 -29z"/>
<path d="M1275 1028 c-48 -25 -50 -26 -43 -34 4 -3 21 2 38 11 l32 17 -23 -41
c-12 -22 -20 -43 -17 -46 7 -8 98 36 98 47 0 11 -7 10 -41 -7 l-30 -16 21 40
c30 60 28 62 -35 29z"/>
<path d="M130 1032 c0 -5 15 -15 32 -24 l33 -15 -48 -7 c-26 -4 -47 -11 -47
-15 0 -6 83 -51 95 -51 16 0 0 19 -27 33 -32 15 -32 16 -8 16 34 2 70 12 70
20 0 6 -84 51 -95 51 -3 0 -5 -4 -5 -8z"/>
<path d="M90 929 c0 -10 31 -24 75 -35 47 -12 25 12 -25 28 -27 9 -50 12 -50
7z"/>
<path d="M1297 922 c-20 -22 -22 -53 -5 -70 15 -15 38 -16 38 -2 0 6 -6 10
-14 10 -20 0 -27 25 -12 45 7 10 22 16 37 13 19 -2 24 -8 22 -31 -2 -30 11
-37 21 -11 9 24 -20 64 -48 64 -12 0 -30 -8 -39 -18z"/>
<path d="M106 871 c-43 -9 -42 -25 3 -54 47 -32 72 -36 47 -8 -18 20 -12 51
10 51 8 0 14 5 14 10 0 11 -28 11 -74 1z m24 -25 c0 -11 -19 -15 -25 -6 -3 5
1 10 9 10 9 0 16 -2 16 -4z"/>
<path d="M1343 828 c-24 -5 -43 -13 -43 -19 0 -5 12 -7 28 -4 15 4 37 8 50 11
12 2 22 9 22 14 0 11 0 11 -57 -2z"/>
<path d="M60 775 c-7 -8 -10 -25 -6 -40 9 -36 44 -33 57 5 6 17 15 30 20 30
13 0 11 -34 -3 -48 -17 -17 -2 -28 17 -12 20 17 20 66 -1 74 -27 11 -35 7 -45
-24 -12 -34 -29 -40 -29 -10 0 11 5 20 10 20 6 0 10 5 10 10 0 15 -16 12 -30
-5z"/>
<path d="M1300 755 c0 -19 5 -35 10 -35 6 0 10 11 10 25 0 22 4 25 39 25 22 0
43 5 46 10 4 6 -15 10 -49 10 l-56 0 0 -35z"/>
<path d="M428 143 c12 -2 30 -2 40 0 9 3 -1 5 -23 4 -22 0 -30 -2 -17 -4z"/>
<path d="M510 141 c0 -4 11 -6 25 -3 14 2 25 6 25 8 0 2 -11 4 -25 4 -14 0
-25 -4 -25 -9z"/>
<path d="M903 143 c9 -2 25 -2 35 0 9 3 1 5 -18 5 -19 0 -27 -2 -17 -5z"/>
<path d="M1008 143 c7 -3 16 -2 19 1 4 3 -2 6 -13 5 -11 0 -14 -3 -6 -6z"/>
<path d="M715 116 c-20 -15 -17 -44 7 -59 12 -8 21 -7 32 2 36 30 -1 85 -39
57z"/>
<path d="M500 91 c0 -6 4 -13 10 -16 6 -3 7 1 4 9 -7 18 -14 21 -14 7z"/>
</g>
</svg>
